<svg width="80" height="80" viewBox="0 0 80 80" fill="none" xmlns="http://www.w3.org/2000/svg">
<path d="M0 20C0 8.95431 8.95431 0 20 0H60C71.0457 0 80 8.95431 80 20V60C80 71.0457 71.0457 80 60 80H20C8.95431 80 0 71.0457 0 60V20Z" fill="#F8E1E7"/>
<path d="M27.5 49.5H30V52H25V27H22.5V54.5H30V57H20V24.5H25V22H32.5C33.6458 22 34.7461 22.1758 35.8008 22.5273C36.8555 22.8789 37.8385 23.4062 38.75 24.1094C39.6484 23.4062 40.625 22.8789 41.6797 22.5273C42.7344 22.1758 43.8411 22 45 22H52.5V24.5H57.5V40.4961L55 39.3633V27H52.5V38.2305L50 37.0781V24.5H45C44.0755 24.5 43.1901 24.6562 42.3438 24.9688C41.4974 25.2812 40.7161 25.7435 40 26.3555V38.2305L37.5 39.3633V26.3555C36.7969 25.7565 36.0221 25.3008 35.1758 24.9883C34.3294 24.6758 33.4375 24.513 32.5 24.5H27.5V49.5ZM55 54.4805L46.25 58.875L37.5 54.4805C37.5 54.0117 37.5065 53.5169 37.5195 52.9961C37.5326 52.4753 37.5846 51.9479 37.6758 51.4141C37.7669 50.8802 37.8971 50.3789 38.0664 49.9102C38.2357 49.4414 38.4701 49.0052 38.7695 48.6016L35 46.8828V58.25H32.5V45.75L46.25 39.5L60 45.75L53.7305 48.6016L53.8867 48.8164C54.1602 49.2201 54.3685 49.6562 54.5117 50.125C54.6549 50.5938 54.7656 51.069 54.8438 51.5508C54.9219 52.0326 54.9674 52.5273 54.9805 53.0352C54.9935 53.543 55 54.0247 55 54.4805ZM46.25 42.2344L38.5352 45.75L46.25 49.2656L53.9648 45.75L46.25 42.2344ZM46.25 56.082L52.5 52.9375C52.487 52.599 52.4609 52.293 52.4219 52.0195C52.3828 51.7461 52.3112 51.4792 52.207 51.2188C52.1029 50.9583 51.9987 50.7044 51.8945 50.457C51.7904 50.2096 51.6406 49.9362 51.4453 49.6367L46.25 52L41.0547 49.6367C40.8594 49.9492 40.7031 50.2292 40.5859 50.4766C40.4688 50.724 40.3646 50.9714 40.2734 51.2188C40.1823 51.4661 40.1237 51.7266 40.0977 52C40.0716 52.2734 40.0456 52.5924 40.0195 52.957L46.25 56.082Z" fill="black"/>
</svg>
