<svg width="80" height="80" viewBox="0 0 80 80" fill="none" xmlns="http://www.w3.org/2000/svg">
<path d="M0 20C0 8.95431 8.95431 0 20 0H60C71.0457 0 80 8.95431 80 20V60C80 71.0457 71.0457 80 60 80H20C8.95431 80 0 71.0457 0 60V20Z" fill="#F8E1E7"/>
<path d="M23.3335 55H48.3335M55.0002 55H56.6668" stroke="black" stroke-width="1.5" stroke-linecap="round" stroke-linejoin="round"/>
<path d="M23.3335 47.3333V26C23.3335 25.7348 23.4389 25.4804 23.6264 25.2929C23.8139 25.1054 24.0683 25 24.3335 25H55.6668C55.932 25 56.1864 25.1054 56.3739 25.2929C56.5615 25.4804 56.6668 25.7348 56.6668 26V47.3333C56.6668 47.5986 56.5615 47.8529 56.3739 48.0404C56.1864 48.228 55.932 48.3333 55.6668 48.3333H24.3335C24.0683 48.3333 23.8139 48.228 23.6264 48.0404C23.4389 47.8529 23.3335 47.5986 23.3335 47.3333Z" stroke="black" stroke-width="1.5"/>
</svg>
