<svg width="80" height="80" viewBox="0 0 80 80" fill="none" xmlns="http://www.w3.org/2000/svg">
<path d="M0 20C0 8.95431 8.95431 0 20 0H60C71.0457 0 80 8.95431 80 20V60C80 71.0457 71.0457 80 60 80H20C8.95431 80 0 71.0457 0 60V20Z" fill="#F9E2E8"/>
<path d="M40 22.5C39.0054 22.5 38.0516 22.8951 37.3483 23.5983C36.6451 24.3016 36.25 25.2554 36.25 26.25C36.25 27.2446 36.6451 28.1984 37.3483 28.9017C38.0516 29.6049 39.0054 30 40 30C40.9946 30 41.9484 29.6049 42.6517 28.9017C43.3549 28.1984 43.75 27.2446 43.75 26.25C43.75 25.2554 43.3549 24.3016 42.6517 23.5983C41.9484 22.8951 40.9946 22.5 40 22.5ZM33.75 26.25C33.75 24.5924 34.4085 23.0027 35.5806 21.8306C36.7527 20.6585 38.3424 20 40 20C41.6576 20 43.2473 20.6585 44.4194 21.8306C45.5915 23.0027 46.25 24.5924 46.25 26.25C46.25 27.9076 45.5915 29.4973 44.4194 30.6694C43.2473 31.8415 41.6576 32.5 40 32.5C38.3424 32.5 36.7527 31.8415 35.5806 30.6694C34.4085 29.4973 33.75 27.9076 33.75 26.25ZM53.75 25C53.087 25 52.4511 25.2634 51.9822 25.7322C51.5134 26.2011 51.25 26.837 51.25 27.5C51.25 28.163 51.5134 28.7989 51.9822 29.2678C52.4511 29.7366 53.087 30 53.75 30C54.413 30 55.0489 29.7366 55.5178 29.2678C55.9866 28.7989 56.25 28.163 56.25 27.5C56.25 26.837 55.9866 26.2011 55.5178 25.7322C55.0489 25.2634 54.413 25 53.75 25ZM48.75 27.5C48.75 26.1739 49.2768 24.9021 50.2145 23.9645C51.1521 23.0268 52.4239 22.5 53.75 22.5C55.0761 22.5 56.3479 23.0268 57.2855 23.9645C58.2232 24.9021 58.75 26.1739 58.75 27.5C58.75 28.8261 58.2232 30.0979 57.2855 31.0355C56.3479 31.9732 55.0761 32.5 53.75 32.5C52.4239 32.5 51.1521 31.9732 50.2145 31.0355C49.2768 30.0979 48.75 28.8261 48.75 27.5ZM23.75 27.5C23.75 26.837 24.0134 26.2011 24.4822 25.7322C24.9511 25.2634 25.587 25 26.25 25C26.913 25 27.5489 25.2634 28.0178 25.7322C28.4866 26.2011 28.75 26.837 28.75 27.5C28.75 28.163 28.4866 28.7989 28.0178 29.2678C27.5489 29.7366 26.913 30 26.25 30C25.587 30 24.9511 29.7366 24.4822 29.2678C24.0134 28.7989 23.75 28.163 23.75 27.5ZM26.25 22.5C24.9239 22.5 23.6521 23.0268 22.7145 23.9645C21.7768 24.9021 21.25 26.1739 21.25 27.5C21.25 28.8261 21.7768 30.0979 22.7145 31.0355C23.6521 31.9732 24.9239 32.5 26.25 32.5C27.5761 32.5 28.8479 31.9732 29.7855 31.0355C30.7232 30.0979 31.25 28.8261 31.25 27.5C31.25 26.1739 30.7232 24.9021 29.7855 23.9645C28.8479 23.0268 27.5761 22.5 26.25 22.5ZM27.75 52.495L27.5 52.5C26.1739 52.5 24.9021 51.9732 23.9645 51.0355C23.0268 50.0979 22.5 48.8261 22.5 47.5V38.125C22.5 37.9592 22.5658 37.8003 22.6831 37.6831C22.8003 37.5658 22.9592 37.5 23.125 37.5H27.535C27.635 36.5825 27.96 35.73 28.4475 35H23.125C21.4 35 20 36.4 20 38.125V47.5C19.9999 48.5703 20.2288 49.6282 20.6715 50.6027C21.1142 51.5772 21.7603 52.4456 22.5664 53.1497C23.3725 53.8537 24.32 54.3771 25.3452 54.6846C26.3703 54.9921 27.4495 55.0766 28.51 54.9325C28.1741 54.1481 27.9195 53.3313 27.75 52.495ZM51.49 54.9325C51.82 54.9775 52.1567 55 52.5 55C54.4891 55 56.3968 54.2098 57.8033 52.8033C59.2098 51.3968 60 49.4891 60 47.5V38.125C60 36.4 58.6 35 56.875 35H51.5525C52.0425 35.73 52.365 36.5825 52.465 37.5H56.875C57.0408 37.5 57.1997 37.5658 57.3169 37.6831C57.4342 37.8003 57.5 37.9592 57.5 38.125V47.5C57.5002 48.1778 57.3625 48.8485 57.0955 49.4714C56.8284 50.0944 56.4375 50.6565 55.9465 51.1237C55.4554 51.5908 54.8746 51.9533 54.2391 52.1891C53.6037 52.4248 52.9269 52.5289 52.25 52.495C52.0805 53.3313 51.8259 54.1481 51.49 54.9325ZM33.125 35C31.4 35 30 36.4 30 38.125V50C30 52.6522 31.0536 55.1957 32.9289 57.0711C34.8043 58.9464 37.3478 60 40 60C42.6522 60 45.1957 58.9464 47.0711 57.0711C48.9464 55.1957 50 52.6522 50 50V38.125C50 36.4 48.6 35 46.875 35H33.125ZM32.5 38.125C32.5 37.9592 32.5658 37.8003 32.6831 37.6831C32.8003 37.5658 32.9592 37.5 33.125 37.5H46.875C47.0408 37.5 47.1997 37.5658 47.3169 37.6831C47.4342 37.8003 47.5 37.9592 47.5 38.125V50C47.5 51.9891 46.7098 53.8968 45.3033 55.3033C43.8968 56.7098 41.9891 57.5 40 57.5C38.0109 57.5 36.1032 56.7098 34.6967 55.3033C33.2902 53.8968 32.5 51.9891 32.5 50V38.125Z" fill="black"/>
</svg>
