<svg width="80" height="80" viewBox="0 0 80 80" fill="none" xmlns="http://www.w3.org/2000/svg">
<path d="M0 20C0 8.95431 8.95431 0 20 0H60C71.0457 0 80 8.95431 80 20V60C80 71.0457 71.0457 80 60 80H20C8.95431 80 0 71.0457 0 60V20Z" fill="#F9E2E8"/>
<path d="M28.8377 39.1687L33.1865 41.0108C33.7367 39.9083 34.3361 38.8413 34.9846 37.8098C35.6331 36.7783 36.349 35.7752 37.1323 34.8006L34.4077 34.2783C34.2255 34.2321 34.0492 34.2375 33.8788 34.2943C33.7084 34.3511 33.5545 34.4477 33.4172 34.5839L28.8377 39.1687ZM34.5923 42.1371L39.6156 47.1571C41.0178 46.5236 42.429 45.7183 43.849 44.7412C45.269 43.7642 46.6346 42.6196 47.9457 41.3075C49.8568 39.3949 51.3171 37.355 52.3265 35.1878C53.3358 33.0206 53.9033 30.5183 54.0287 27.6808C51.1934 27.8063 48.6966 28.3742 46.5381 29.3844C44.3821 30.3945 42.3479 31.8559 40.4356 33.7685C39.1257 35.0807 37.9826 36.4526 37.0063 37.8844C36.0301 39.3162 35.2254 40.7337 34.5923 42.1371ZM43.7869 37.9181C43.2662 37.3971 43.0059 36.7718 43.0059 36.0423C43.0059 35.3128 43.2662 34.6869 43.7869 34.1646C44.3075 33.6424 44.9406 33.3818 45.6861 33.383C46.4316 33.3842 47.0641 33.6447 47.5836 34.1646C48.1031 34.6845 48.3634 35.3104 48.3646 36.0423C48.3658 36.7741 48.1055 37.3994 47.5836 37.9181C47.063 38.4392 46.4299 38.6997 45.6844 38.6997C44.9389 38.6997 44.3069 38.4392 43.7886 37.9181M42.5479 52.9268L47.1292 48.342C47.2653 48.2046 47.3623 48.0507 47.4203 47.8801C47.4771 47.7096 47.483 47.5331 47.4381 47.3508L46.9144 44.624C45.9405 45.408 44.9383 46.1227 43.9076 46.7681C42.8769 47.4135 41.8107 48.0116 40.709 48.5623L42.5479 52.9268ZM55.6866 26.0448C55.8854 29.3086 55.4239 32.3107 54.302 35.051C53.1814 37.7926 51.436 40.3494 49.0658 42.7215L48.7569 43.0288L48.4498 43.3361L49.1669 46.9813C49.2628 47.4597 49.245 47.9234 49.1137 48.3722C48.9811 48.821 48.7421 49.2183 48.3966 49.5641L41.932 56L38.989 49.0632L32.6629 42.7322L25.7314 39.7531L32.1517 33.3173C32.4972 32.9715 32.896 32.7269 33.348 32.5836C33.8001 32.4403 34.2651 32.4167 34.7432 32.5126L38.453 33.2622C38.5666 33.1485 38.663 33.0461 38.7423 32.9549C38.8216 32.8637 38.9186 32.7613 39.0334 32.6476C41.4048 30.2743 43.9579 28.5311 46.6926 27.4179C49.4273 26.3047 52.4241 25.847 55.6866 26.0448ZM28.7099 47.9618C29.4045 47.2679 30.2483 46.9244 31.2411 46.9315C32.2339 46.9386 33.0776 47.2904 33.7723 47.9867C34.4669 48.6831 34.8124 49.5274 34.8089 50.5198C34.8053 51.5146 34.4562 52.359 33.7616 53.053C33.1581 53.6569 32.1907 54.1739 30.8595 54.6038C29.5282 55.0336 27.9869 55.3309 26.2355 55.4955C26.4 53.7428 26.703 52.2003 27.1444 50.868C27.5857 49.5357 28.1076 48.567 28.7099 47.9618ZM29.9773 49.2533C29.6353 49.5955 29.3164 50.1533 29.0205 50.9266C28.7247 51.7 28.5295 52.4976 28.4348 53.3194C29.256 53.2235 30.053 53.0234 30.8257 52.719C31.5973 52.4158 32.154 52.0931 32.496 51.7509C32.851 51.3956 33.0321 50.9722 33.0392 50.4808C33.0451 49.9881 32.8705 49.5641 32.5155 49.2089C32.1605 48.8536 31.7375 48.6836 31.2464 48.699C30.7553 48.7133 30.3323 48.898 29.9773 49.2533Z" fill="black"/>
</svg>
