<svg width="60" height="60" viewBox="0 0 60 60" fill="none" xmlns="http://www.w3.org/2000/svg">
<path d="M37.715 29.8582L41.5714 26.0018L29.9996 14.4272L18.4277 25.9991L22.2868 29.8554L27.2723 24.8727V45.4282H32.7268V24.8727L37.715 29.8582Z" fill="#320E2C"/>
<path fill-rule="evenodd" clip-rule="evenodd" d="M51.2127 8.78727C39.4964 -2.92909 20.5036 -2.92909 8.78727 8.78727C-2.92909 20.5036 -2.92909 39.4964 8.78727 51.2127C20.5036 62.9291 39.4964 62.9291 51.2127 51.2127C62.9291 39.4964 62.9291 20.5036 51.2127 8.78727ZM47.3564 12.6436C42.7532 8.04044 36.5099 5.45439 30 5.45439C23.4901 5.45439 17.2468 8.04044 12.6436 12.6436C8.04044 17.2468 5.45439 23.4901 5.45439 30C5.45439 36.5099 8.04044 42.7532 12.6436 47.3564C17.2468 51.9596 23.4901 54.5456 30 54.5456C36.5099 54.5456 42.7532 51.9596 47.3564 47.3564C51.9596 42.7532 54.5456 36.5099 54.5456 30C54.5456 23.4901 51.9596 17.2468 47.3564 12.6436Z" fill="#320E2C"/>
</svg>
