<svg width="40" height="40" viewBox="0 0 40 40" fill="none" xmlns="http://www.w3.org/2000/svg">
<path fill-rule="evenodd" clip-rule="evenodd" d="M20.9886 38.7636L20.9703 38.7669L20.852 38.8252L20.8186 38.8319L20.7953 38.8252L20.677 38.7669C20.6592 38.7613 20.6458 38.7641 20.637 38.7752L20.6303 38.7919L20.602 39.5052L20.6103 39.5386L20.627 39.5602L20.8003 39.6836L20.8253 39.6902L20.8453 39.6836L21.0186 39.5602L21.0386 39.5336L21.0453 39.5052L21.017 38.7936C21.0125 38.7758 21.0031 38.7658 20.9886 38.7636ZM21.4303 38.5752L21.4086 38.5786L21.1003 38.7336L21.0836 38.7502L21.0786 38.7686L21.1086 39.4852L21.117 39.5052L21.1303 39.5169L21.4653 39.6719C21.4864 39.6774 21.5025 39.673 21.5136 39.6586L21.5203 39.6352L21.4636 38.6119C21.4581 38.5919 21.447 38.5797 21.4303 38.5752ZM20.2386 38.5786C20.2313 38.5741 20.2225 38.5727 20.2141 38.5745C20.2057 38.5764 20.1984 38.5814 20.1936 38.5886L20.1836 38.6119L20.127 39.6352C20.1281 39.6552 20.1375 39.6686 20.1553 39.6752L20.1803 39.6719L20.5153 39.5169L20.532 39.5036L20.5386 39.4852L20.567 38.7686L20.562 38.7486L20.5453 38.7319L20.2386 38.5786Z" fill="#320E2C"/>
<path fill-rule="evenodd" clip-rule="evenodd" d="M20.0002 3.3335C10.7952 3.3335 3.3335 10.7952 3.3335 20.0002C3.3335 29.2052 10.7952 36.6668 20.0002 36.6668C29.2052 36.6668 36.6668 29.2052 36.6668 20.0002C36.6668 10.7952 29.2052 3.3335 20.0002 3.3335ZM15.0002 20.0002C15.0003 18.9846 15.3096 17.9931 15.8871 17.1577C16.4645 16.3223 17.2827 15.6825 18.2326 15.3235C19.1826 14.9645 20.2194 14.9033 21.2051 15.148C22.1907 15.3928 23.0784 15.9318 23.7502 16.6935C24.0428 17.025 24.4551 17.2267 24.8965 17.2542C25.3378 17.2817 25.772 17.1328 26.1035 16.8402C26.435 16.5475 26.6367 16.1352 26.6642 15.6939C26.6917 15.2525 26.5428 14.8184 26.2502 14.4868C25.1305 13.2175 23.6508 12.3191 22.0081 11.9114C20.3653 11.5037 18.6373 11.6058 17.054 12.2043C15.4707 12.8028 14.1073 13.8693 13.145 15.2617C12.1827 16.6542 11.6673 18.3067 11.6673 19.9993C11.6673 21.6919 12.1827 23.3444 13.145 24.7369C14.1073 26.1294 15.4707 27.1958 17.054 27.7943C18.6373 28.3928 20.3653 28.495 22.0081 28.0873C23.6508 27.6795 25.1305 26.7812 26.2502 25.5118C26.3949 25.3477 26.506 25.1566 26.5769 24.9496C26.6479 24.7425 26.6773 24.5235 26.6636 24.305C26.6499 24.0866 26.5933 23.873 26.4971 23.6764C26.4008 23.4798 26.2668 23.3041 26.1027 23.1593C25.9385 23.0145 25.7474 22.9035 25.5404 22.8326C25.3333 22.7616 25.1143 22.7322 24.8959 22.7459C24.6774 22.7596 24.4638 22.8161 24.2672 22.9124C24.0706 23.0086 23.8949 23.1427 23.7502 23.3068C23.0784 24.0685 22.1907 24.6076 21.2051 24.8523C20.2194 25.097 19.1826 25.0358 18.2326 24.6768C17.2827 24.3178 16.4645 23.678 15.8871 22.8426C15.3096 22.0072 15.0003 21.0157 15.0002 20.0002Z" fill="#320E2C"/>
</svg>
