<svg width="81" height="80" viewBox="0 0 81 80" fill="none" xmlns="http://www.w3.org/2000/svg">
<rect x="0.5" width="80" height="80" rx="20" fill="#FDF8F5"/>
<path fill-rule="evenodd" clip-rule="evenodd" d="M29.3332 21.6667C27.5651 21.6667 25.8694 22.3691 24.6191 23.6193C23.3689 24.8696 22.6665 26.5652 22.6665 28.3334V51.6667C22.6665 53.4348 23.3689 55.1305 24.6191 56.3807C25.8694 57.631 27.5651 58.3334 29.3332 58.3334H52.6665C54.4346 58.3334 56.1303 57.631 57.3805 56.3807C58.6308 55.1305 59.3332 53.4348 59.3332 51.6667V28.3334C59.3332 26.5652 58.6308 24.8696 57.3805 23.6193C56.1303 22.3691 54.4346 21.6667 52.6665 21.6667H29.3332ZM37.5915 30.3417C35.5165 30.3417 33.9465 30.6917 32.2265 31.535C32.1284 31.5829 32.0462 31.6582 31.9898 31.7517C30.8098 33.7234 28.4998 39.2 28.4998 45.6834C28.4998 45.8317 28.5565 45.9734 28.6598 46.0784C29.7398 47.195 30.7232 48.015 31.7765 48.595C32.8382 49.1767 33.9432 49.5 35.2498 49.6567C35.3587 49.67 35.4691 49.6514 35.5676 49.6032C35.6661 49.5549 35.7485 49.4792 35.8048 49.385L36.3798 48.4284C35.8959 48.2587 35.4303 48.041 34.9898 47.7784C34.7477 47.6348 34.5129 47.479 34.2865 47.3117L34.2415 47.2784L34.2282 47.2684L34.2248 47.265H34.2215C34.0545 47.1215 33.9495 46.919 33.9283 46.6999C33.9071 46.4807 33.9715 46.2618 34.1079 46.089C34.2444 45.9162 34.4423 45.8028 34.6604 45.7726C34.8785 45.7423 35.0998 45.7975 35.2782 45.9267L35.2815 45.9284L35.3082 45.9484L35.4215 46.0317C35.5215 46.1017 35.6715 46.2017 35.8565 46.3117C36.3015 46.581 36.7824 46.7858 37.2848 46.92C38.4995 47.2267 39.7471 47.3835 40.9998 47.3867C42.2531 47.3836 43.5013 47.2269 44.7165 46.92C45.2184 46.7856 45.6987 46.5808 46.1432 46.3117C46.3324 46.1997 46.5159 46.0785 46.6932 45.9484L46.7182 45.9284L46.7215 45.9267C46.8999 45.8015 47.1193 45.7494 47.3349 45.7808C47.5505 45.8123 47.7459 45.9251 47.8811 46.096C48.0162 46.267 48.0808 46.4831 48.0617 46.7001C48.0425 46.9172 47.9411 47.1187 47.7782 47.2634L47.7748 47.265L47.7715 47.2684L47.7582 47.28L47.7132 47.3134C47.4868 47.4807 47.252 47.6364 47.0098 47.78C46.5693 48.042 46.1037 48.2592 45.6198 48.4284L46.1948 49.385C46.3098 49.5767 46.5282 49.685 46.7498 49.6567C48.0565 49.5 49.1615 49.1767 50.2215 48.5934C51.2765 48.015 52.2598 47.1934 53.3382 46.0784C53.4415 45.9728 53.4995 45.8311 53.4998 45.6834C53.4998 39.2017 51.1898 33.7234 50.0098 31.755C49.9535 31.6615 49.8713 31.5863 49.7732 31.5384C48.0532 30.6934 46.4832 30.3434 44.4098 30.3434C44.2904 30.3429 44.1738 30.3802 44.0769 30.45C43.9799 30.5197 43.9074 30.6183 43.8698 30.7317L43.4865 31.8767C42.6833 31.6156 41.8444 31.4806 40.9998 31.4767C40.1552 31.4806 39.3164 31.6156 38.5132 31.8767L38.1315 30.73C38.094 30.6169 38.0218 30.5185 37.9251 30.4488C37.8285 30.3791 37.7123 30.3416 37.5932 30.3417H37.5915ZM37.0232 42.8417C37.9632 42.8417 38.7265 41.95 38.7265 40.8517C38.7265 39.7534 37.9632 38.8634 37.0232 38.8634C36.0832 38.8634 35.3182 39.7534 35.3182 40.8517C35.3182 41.9517 36.0815 42.8417 37.0232 42.8417ZM44.9765 42.8417C45.9182 42.8417 46.6815 41.95 46.6815 40.8517C46.6815 39.7534 45.9182 38.8634 44.9765 38.8634C44.0365 38.8634 43.2732 39.7534 43.2732 40.8517C43.2732 41.9517 44.0365 42.8417 44.9765 42.8417Z" fill="black"/>
</svg>
