<svg width="81" height="80" viewBox="0 0 81 80" fill="none" xmlns="http://www.w3.org/2000/svg">
<path d="M0.5 20C0.5 8.95431 9.45431 0 20.5 0H60.5C71.5457 0 80.5 8.95431 80.5 20V60C80.5 71.0457 71.5457 80 60.5 80H20.5C9.45431 80 0.5 71.0457 0.5 60V20Z" fill="#FDF8F5"/>
<path d="M54.3335 26.6667H27.6668C25.8335 26.6667 24.3502 28.1667 24.3502 30L24.3335 50C24.3335 51.8334 25.8335 53.3334 27.6668 53.3334H54.3335C56.1668 53.3334 57.6668 51.8334 57.6668 50V30C57.6668 28.1667 56.1668 26.6667 54.3335 26.6667ZM54.3335 33.3334L41.0002 41.6667L27.6668 33.3334V30L41.0002 38.3334L54.3335 30V33.3334Z" fill="#320E2C"/>
</svg>
