<svg width="81" height="80" viewBox="0 0 81 80" fill="none" xmlns="http://www.w3.org/2000/svg">
<path d="M0.5 20C0.5 8.95431 9.45431 0 20.5 0H60.5C71.5457 0 80.5 8.95431 80.5 20V60C80.5 71.0457 71.5457 80 60.5 80H20.5C9.45431 80 0.5 71.0457 0.5 60V20Z" fill="#FDF8F5"/>
<path fill-rule="evenodd" clip-rule="evenodd" d="M61 40C61 51.05 52.05 60 41 60C29.95 60 21 51.05 21 40C21 28.95 29.95 20 41 20C52.05 20 61 28.95 61 40ZM36.9 57.025V53.3C32.15 54.365 31.125 51.17 31.125 51.17C30.36 49.1 29.23 48.57 29.23 48.57C27.675 47.475 29.3425 47.475 29.3425 47.475C31.0675 47.5925 31.9675 49.31 31.9675 49.31C33.495 52.035 35.9675 51.2625 36.9425 50.79C37.085 49.635 37.5375 48.8375 38.0175 48.3925C34.2175 47.9775 30.2425 46.44 30.2425 39.5675C30.2425 37.615 30.92 36.0175 31.9975 34.7675C31.8275 34.325 31.2325 32.49 32.1675 30.0425C32.1675 30.0425 33.61 29.57 36.8675 31.8775C38.2592 31.4878 39.6973 31.2885 41.1425 31.285C42.585 31.285 44.0675 31.4925 45.4175 31.8775C48.6675 29.57 50.1175 30.0425 50.1175 30.0425C51.0525 32.4975 50.4575 34.3425 50.2875 34.7675C51.3925 36.01 52.0425 37.6175 52.0425 39.5675C52.0425 46.4425 48.0425 47.9425 44.2425 48.3925C44.8675 48.955 45.495 50.02 45.495 51.7175V56.9425C49.2297 55.9546 52.5326 53.7588 54.8886 50.6972C57.2447 47.6357 58.5215 43.8806 58.52 40.0175C58.52 30.3425 50.695 22.5175 41.02 22.5175C31.345 22.5175 23.52 30.3425 23.52 40.0175C23.52 48.2675 29.245 55.1925 36.92 57.0425L36.9 57.025Z" fill="#320E2C"/>
</svg>
