<svg width="60" height="60" viewBox="0 0 60 60" fill="none" xmlns="http://www.w3.org/2000/svg">
<path fill-rule="evenodd" clip-rule="evenodd" d="M60 30C60 46.575 46.575 60 30 60C13.425 60 0 46.575 0 30C0 13.425 13.425 0 30 0C46.575 0 60 13.425 60 30ZM23.85 55.5375V49.95C16.725 51.5475 15.1875 46.755 15.1875 46.755C14.04 43.65 12.345 42.855 12.345 42.855C10.0125 41.2125 12.5138 41.2125 12.5138 41.2125C15.1012 41.3887 16.4513 43.965 16.4513 43.965C18.7425 48.0525 22.4513 46.8937 23.9137 46.185C24.1275 44.4525 24.8063 43.2563 25.5263 42.5888C19.8263 41.9663 13.8638 39.66 13.8638 29.3512C13.8638 26.4225 14.88 24.0263 16.4963 22.1513C16.2413 21.4875 15.3488 18.735 16.7512 15.0638C16.7512 15.0638 18.915 14.355 23.8013 17.8162C25.8888 17.2318 28.0459 16.9328 30.2138 16.9275C32.3775 16.9275 34.6012 17.2388 36.6263 17.8162C41.5013 14.355 43.6763 15.0638 43.6763 15.0638C45.0788 18.7463 44.1862 21.5138 43.9313 22.1513C45.5887 24.015 46.5638 26.4263 46.5638 29.3512C46.5638 39.6637 40.5638 41.9137 34.8638 42.5888C35.8013 43.4325 36.7425 45.03 36.7425 47.5763V55.4137C42.3446 53.932 47.2989 50.6381 50.833 46.0459C54.367 41.4536 56.2823 35.821 56.28 30.0262C56.28 15.5138 44.5425 3.77625 30.03 3.77625C15.5175 3.77625 3.78 15.5138 3.78 30.0262C3.78 42.4012 12.3675 52.7887 23.88 55.5638L23.85 55.5375Z" fill="#320E2C"/>
</svg>
