<svg width="81" height="80" viewBox="0 0 81 80" fill="none" xmlns="http://www.w3.org/2000/svg">
<path d="M0.5 20C0.5 8.95431 9.45431 0 20.5 0H60.5C71.5457 0 80.5 8.95431 80.5 20V60C80.5 71.0457 71.5457 80 60.5 80H20.5C9.45431 80 0.5 71.0457 0.5 60V20Z" fill="#FDF8F5"/>
<path d="M57.0808 47.2773L51.425 46.6315C50.7599 46.5534 50.0858 46.627 49.4533 46.8469C48.8209 47.0667 48.2464 47.427 47.7732 47.9008L43.676 51.9979C37.3553 48.7824 32.2175 43.6446 29.002 37.3239L33.1215 33.2044C34.0789 32.2469 34.5465 30.9109 34.3907 29.5526L33.7449 23.9413C33.6192 22.8549 33.098 21.8527 32.2808 21.1258C31.4636 20.399 30.4075 19.9982 29.3138 20H25.4616C22.9454 20 20.8523 22.0931 21.0082 24.6093C22.1883 43.6255 37.3967 58.8117 56.3905 59.9918C58.9067 60.1477 60.9998 58.0546 60.9998 55.5384V51.6862C61.0221 49.4372 59.3298 47.5445 57.0808 47.2773Z" fill="#320E2C"/>
</svg>
