<svg width="60" height="46" viewBox="0 0 60 46" fill="none" xmlns="http://www.w3.org/2000/svg">
<path d="M51.6285 26.4017C49.5411 26.4125 47.7268 26.9153 46.2079 27.6585C45.6503 26.5546 45.0929 25.5711 44.9947 24.8497C44.8853 24.0083 44.7543 23.4945 44.8853 22.4891C45.0165 21.4836 45.6067 20.0518 45.5957 19.9426C45.5847 19.8334 45.4644 19.3196 44.2623 19.3088C43.0602 19.2981 42.0219 19.5383 41.9017 19.8552C41.7815 20.1721 41.552 20.8935 41.399 21.6364C41.1913 22.7295 38.9947 26.631 37.738 28.6747C37.3335 27.8771 36.9838 27.1775 36.9072 26.6202C36.7979 25.7788 36.6667 25.265 36.7979 24.2596C36.9292 23.2541 37.5193 21.8225 37.5083 21.7131C37.4973 21.6038 37.3771 21.0901 36.175 21.0793C34.9726 21.0683 33.9343 21.3088 33.8143 21.6256C33.6941 21.9428 33.5629 22.6857 33.3116 23.4071C33.0604 24.1285 30.1422 30.6423 29.3772 32.3251C29.068 33.0062 28.7437 33.6804 28.4045 34.347C28.4045 34.347 28.3935 34.3799 28.3607 34.4345C28.2541 34.6435 28.1449 34.8512 28.033 35.0574V35.0682C27.869 35.3635 27.6941 35.6366 27.6067 35.6366C27.5411 35.6366 27.4208 34.8498 27.6285 33.7787C28.0656 31.5165 29.1039 27.9974 29.0931 27.8771C29.0931 27.8115 29.2897 27.1996 28.4155 26.8824C27.5629 26.5656 27.257 27.0901 27.1804 27.0901C27.1037 27.0901 27.0491 27.276 27.0491 27.276C27.0491 27.276 28.0002 23.3197 25.235 23.3197C23.5084 23.3197 21.1257 25.2104 19.9454 26.9153C18.6037 27.6454 17.263 28.3777 15.9236 29.1121C15.279 29.4728 14.6122 29.8335 13.9893 30.1721C13.9454 30.1285 13.9018 30.0737 13.858 30.0301C10.5137 26.4563 4.32809 23.9317 4.59036 19.134C4.68879 17.3853 5.28973 12.7951 16.4701 7.22142C25.6722 2.6858 32.9947 3.94252 34.2625 6.72947C36.0765 10.7078 30.339 18.0957 20.8307 19.1666C17.2023 19.5711 15.3006 18.1721 14.8199 17.6476C14.3172 17.101 14.2405 17.0682 14.0547 17.1777C13.7488 17.3417 13.9454 17.8335 14.0547 18.1175C14.339 18.8605 15.5082 20.172 17.4864 20.817C19.235 21.3852 23.4864 21.7023 28.634 19.7131C34.3935 17.4835 38.8963 11.2869 37.574 6.09572C36.2514 0.827907 27.5082 -0.909749 19.235 2.03002C14.3172 3.77892 8.98372 6.53283 5.1477 10.1176C0.590278 14.3797 -0.131128 18.0847 0.16395 19.6367C1.22426 25.1448 8.81989 28.7295 11.8581 31.3853C11.705 31.4727 11.5628 31.5493 11.4428 31.6149C9.92356 32.3689 4.13122 35.3961 2.68864 38.5984C1.04942 42.2267 2.95114 44.8281 4.20786 45.1775C8.1095 46.2596 12.1204 44.3143 14.2733 41.101C16.4263 37.888 16.164 33.7131 15.1696 31.8006C15.1586 31.7788 15.1478 31.7567 15.1257 31.7349C15.5193 31.5055 15.9236 31.265 16.3171 31.0356C17.0403 30.608 17.7728 30.1962 18.5139 29.8004C18.1422 30.8169 17.8689 32.03 17.7379 33.7787C17.5738 35.8335 18.4152 38.4999 19.5191 39.549C20.0111 40.0084 20.5902 40.0192 20.9619 40.0192C22.2515 40.0192 22.8308 38.9481 23.4756 37.6803C24.2624 36.1285 24.9728 34.3253 24.9728 34.3253C24.9728 34.3253 24.0875 39.1995 26.492 39.1995C27.3662 39.1995 28.2515 38.0628 28.645 37.4837V37.4945C28.645 37.4945 28.6668 37.4617 28.7106 37.3853C28.798 37.2432 28.8526 37.1556 28.8526 37.1556V37.134C29.2023 36.5218 29.9893 35.1338 31.1586 32.8278C32.6668 29.8553 34.1204 26.1395 34.1204 26.1395C34.1204 26.1395 34.2517 27.0465 34.6996 28.5547C34.9621 29.4399 35.5082 30.4126 35.9455 31.3524C35.5958 31.8444 35.3772 32.1174 35.3772 32.1174L35.3882 32.1285C35.1039 32.4999 34.798 32.9042 34.4591 33.298C33.2678 34.7185 31.8472 36.3472 31.6504 36.8169C31.4207 37.3742 31.4755 37.7788 31.9129 38.1067C32.2297 38.3471 32.7979 38.3797 33.3772 38.3471C34.4483 38.2705 35.2023 38.0082 35.5738 37.8444C36.1532 37.6367 36.8308 37.3196 37.4645 36.8497C38.634 35.9863 39.3442 34.7513 39.2788 33.1231C39.246 32.2269 38.9509 31.3306 38.5902 30.489C38.6997 30.3362 38.7979 30.1831 38.9073 30.0301C40.7542 27.3306 42.186 24.3688 42.186 24.3688C42.186 24.3688 42.3172 25.2758 42.7651 26.7842C42.9838 27.5492 43.4319 28.3799 43.8252 29.1885C42.0875 30.5985 41.0165 32.2377 40.634 33.3088C39.9456 35.2979 40.4809 36.1939 41.4974 36.4016C41.9563 36.5 42.6121 36.2813 43.093 36.0737C43.705 35.877 44.4264 35.5384 45.115 35.0354C46.2845 34.1722 47.41 32.9699 47.3443 31.3417C47.3115 30.5985 47.1149 29.866 46.8416 29.1556C48.317 28.5439 50.2187 28.205 52.6447 28.4891C57.8472 29.101 58.8744 32.3469 58.6775 33.7133C58.4809 35.0792 57.388 35.8224 57.0275 36.0519C56.6666 36.2816 56.5466 36.358 56.5794 36.5218C56.623 36.7623 56.7979 36.7515 57.104 36.7077C57.5303 36.6313 59.8363 35.6038 59.9345 33.0901C60.0986 29.877 57.0383 26.3689 51.6285 26.4017ZM11.4974 39.9317C9.77051 41.8114 7.36629 42.5218 6.32801 41.9209C5.21333 41.2759 5.65044 38.4999 7.77059 36.511C9.06012 35.2979 10.7214 34.172 11.8253 33.4836C12.0765 33.3306 12.4482 33.1121 12.8964 32.8388C12.9728 32.795 13.0166 32.7732 13.0166 32.7732L13.2789 32.6092C14.0547 35.4507 13.3117 37.9536 11.4974 39.9317ZM24.0657 31.3853C23.4646 32.8499 22.2079 36.5985 21.4429 36.3908C20.7871 36.216 20.3825 33.3744 21.3116 30.5656C21.7815 29.1556 22.776 27.4726 23.3554 26.8171C24.2952 25.7678 25.3335 25.4178 25.5847 25.8444C25.9018 26.4017 24.4372 30.4672 24.0657 31.3853ZM34.4373 36.347C34.1858 36.4782 33.9456 36.5656 33.8361 36.5C33.7597 36.4562 33.9456 36.2813 33.9456 36.2813C33.9456 36.2813 35.2461 34.8826 35.7597 34.2486C36.055 33.8771 36.4044 33.44 36.7761 32.9481V33.0901C36.7761 34.7624 35.1585 35.8881 34.4371 36.347M42.437 34.5219C42.2511 34.3906 42.284 33.9535 42.9069 32.5874C43.1474 32.0518 43.7155 31.1558 44.6884 30.2924C44.7976 30.642 44.8743 30.981 44.8633 31.2978C44.8522 33.4072 43.3443 34.194 42.437 34.5219Z" fill="#CD6799"/>
</svg>
