<svg width="81" height="80" viewBox="0 0 81 80" fill="none" xmlns="http://www.w3.org/2000/svg">
<rect x="0.5" width="80" height="80" rx="20" fill="#FDF8F5"/>
<path d="M41 15C27.2 15 16 26.2 16 40C16 53.8 27.2 65 41 65C54.8 65 66 53.8 66 40C66 26.2 54.8 15 41 15ZM52.6 32C52.225 35.95 50.6 45.55 49.775 49.975C49.425 51.85 48.725 52.475 48.075 52.55C46.625 52.675 45.525 51.6 44.125 50.675C41.925 49.225 40.675 48.325 38.55 46.925C36.075 45.3 37.675 44.4 39.1 42.95C39.475 42.575 45.875 36.75 46 36.225C46.0174 36.1455 46.0151 36.0629 45.9933 35.9845C45.9715 35.9061 45.9309 35.8342 45.875 35.775C45.725 35.65 45.525 35.7 45.35 35.725C45.125 35.775 41.625 38.1 34.8 42.7C33.8 43.375 32.9 43.725 32.1 43.7C31.2 43.675 29.5 43.2 28.225 42.775C26.65 42.275 25.425 42 25.525 41.125C25.575 40.675 26.2 40.225 27.375 39.75C34.675 36.575 39.525 34.475 41.95 33.475C48.9 30.575 50.325 30.075 51.275 30.075C51.475 30.075 51.95 30.125 52.25 30.375C52.5 30.575 52.575 30.85 52.6 31.05C52.575 31.2 52.625 31.65 52.6 32Z" fill="#320E2C"/>
</svg>
