<svg width="60" height="60" viewBox="0 0 60 60" fill="none" xmlns="http://www.w3.org/2000/svg">
<path d="M58.4841 9.14998L31.5582 57.299C31.0018 58.2933 29.5735 58.2989 29.0096 57.3103L1.54928 9.1556C0.933807 8.07654 1.8549 6.77107 3.07787 6.98904L30.0329 11.8064C30.2049 11.8377 30.3812 11.8377 30.5532 11.8064L56.9438 6.99654C58.1616 6.77482 59.0883 8.06951 58.4841 9.14998Z" fill="url(#paint0_linear_17_71)"/>
<path d="M42.8717 0.670353L22.947 4.5741C22.788 4.60518 22.6438 4.68819 22.5371 4.81011C22.4303 4.93203 22.3671 5.08595 22.3573 5.2477L21.1306 25.9514C21.124 26.065 21.144 26.1785 21.1888 26.283C21.2337 26.3875 21.3023 26.4801 21.3892 26.5535C21.476 26.6269 21.5788 26.6791 21.6893 26.7059C21.7998 26.7327 21.9151 26.7334 22.0259 26.708L27.5741 25.426C27.6936 25.3985 27.818 25.4015 27.9361 25.4347C28.0541 25.4678 28.1619 25.5301 28.2496 25.6157C28.3373 25.7014 28.4021 25.8077 28.4381 25.9249C28.474 26.0421 28.4799 26.1665 28.4553 26.2866L26.8067 34.358C26.7815 34.4822 26.789 34.6109 26.8284 34.7313C26.8679 34.8518 26.9379 34.96 27.0317 35.0453C27.1255 35.1305 27.2398 35.19 27.3635 35.2179C27.4871 35.2457 27.6159 35.241 27.7372 35.2041L31.1628 34.1621C31.6939 34.0008 32.2048 34.4677 32.0933 35.0114L29.473 47.6897C29.3098 48.4829 30.3645 48.915 30.8042 48.2354L31.0972 47.7816L47.3347 15.3769C47.6075 14.8332 47.1373 14.2144 46.5425 14.3297L40.8308 15.4322C40.7079 15.4561 40.5809 15.448 40.462 15.4086C40.3432 15.3693 40.2364 15.3001 40.152 15.2076C40.0676 15.1151 40.0084 15.0025 39.9801 14.8805C39.9518 14.7585 39.9553 14.6313 39.9903 14.5111L43.7169 1.59145C43.7519 1.47081 43.7553 1.34318 43.7267 1.22087C43.698 1.09855 43.6384 0.985676 43.5534 0.893116C43.4685 0.800556 43.3612 0.731435 43.2418 0.692417C43.1224 0.6534 42.9949 0.645801 42.8717 0.670353Z" fill="url(#paint1_linear_17_71)"/>
<defs>
<linearGradient id="paint0_linear_17_71" x1="0.878119" y1="5.26854" x2="34.3908" y2="50.7814" gradientUnits="userSpaceOnUse">
<stop stop-color="#41D1FF"/>
<stop offset="1" stop-color="#BD34FE"/>
</linearGradient>
<linearGradient id="paint1_linear_17_71" x1="28.4858" y1="1.72972" x2="34.5481" y2="43.3164" gradientUnits="userSpaceOnUse">
<stop stop-color="#FFEA83"/>
<stop offset="0.083" stop-color="#FFDD35"/>
<stop offset="1" stop-color="#FFA800"/>
</linearGradient>
</defs>
</svg>
